# xmcd
#
# Track frame offsets:
#  150
#  11159
#  20628
#  31239
#  40881
#  52511
#  63781
#  72724
#  82131
#  93716
#  103919
#  113109
#  122530
#  132021
#  141449
#  150923
#  162089
#  174316
#  183769
#  193095
#  203436
#  213660
#  226747
#  235816
#  246129
#  256340
#  266374
#  276717
#  285853
#  294242
#  303046
#  313956
#
# Disc length: 4317 seconds
#
# Revision: 0
# Processed by: cddbd v1.5.2PL0 Copyright (c) Steve Scherf et al.
# Submitted via: AltoMP3_Maker 3.0
#
DISCID=bd10db20
DTITLE=The Cokers - We're Gonna Bop
DYEAR=1900
DGENRE=
TTITLE0=Alvadean - Witch's Waltz
TTITLE1=Alvadean - Sugar Doll
TTITLE2=Alvadean - Pinnolo the Puppy
TTITLE3=Alvadean - Funny Little Things
TTITLE4=Alvadean - I Sold Out My Heart
TTITLE5=Alvadean - Crying Heart
TTITLE6=Sandy - Meadowlark Melody
TTITLE7=Sandy - Toss Over
TTITLE8=Jim Reeves and Alvadean - Are You the One
TTITLE9=Alvadean and Cokers - We're Gonna Bop
TTITLE10=Alvadean and Cokers - Do Dee Oodle Dee Do (I'm in Love)
TTITLE11=Al and Cokers - Don't Go Baby (Don't Go)
TTITLE12=Al and Cokers - I Laughed and Walked Away
TTITLE13=Sandy and Cokers - Free Wheelin'
TTITLE14=Sandy and Cokers - Rock Island Line
TTITLE15=Alvadean and Cokers - Insufficient Love
TTITLE16=Alvadean and Cokers - There's a Tear in the Eye of the Man in the Moon
TTITLE17=Al and Cokers - Are You in the Mood for Lovin'
TTITLE18=Al and Cokers - Baby I Like Your Style
TTITLE19=Sandy and Cokers - Sandy's Rag
TTITLE20=Sandy and Cokers - Gitfiddle Rag
TTITLE21=Alvadean - Playing Cupid
TTITLE22=Al and Anita Kerr Quartet - One More Chance
TTITLE23=Al and Anita Kerr Quartet - Let's Do It Again
TTITLE24=Alvadean - Double Date
TTITLE25=Alvadean - It's Nearly Over
TTITLE26=Sandy - Good Feelin'
TTITLE27=Sandy - Undercover
TTITLE28=Sandy - Tender Moments
TTITLE29=Sandy - Honky Tonk Freeze
TTITLE30=Alvadean - Crying Heart (alt)
TTITLE31=Alvadean and Cokers - We're Gonna Bop (alt)
EXTD=
EXTT0=
EXTT1=
EXTT2=
EXTT3=
EXTT4=
EXTT5=
EXTT6=
EXTT7=
EXTT8=
EXTT9=
EXTT10=
EXTT11=
EXTT12=
EXTT13=
EXTT14=
EXTT15=
EXTT16=
EXTT17=
EXTT18=
EXTT19=
EXTT20=
EXTT21=
EXTT22=
EXTT23=
EXTT24=
EXTT25=
EXTT26=
EXTT27=
EXTT28=
EXTT29=
EXTT30=
EXTT31=
PLAYORDER=
